<?xml version="1.0" encoding="utf-8"?>
<!-- Generator: Adobe Illustrator 27.5.0, SVG Export Plug-In . SVG Version: 6.00 Build 0)  -->
<svg version="1.1" xmlns="http://www.w3.org/2000/svg" xmlns:xlink="http://www.w3.org/1999/xlink" x="0px" y="0px"
	 viewBox="0 0 750 500" style="enable-background:new 0 0 750 500;" xml:space="preserve">
<g id="BACKGROUND">
	<rect style="fill:#FFFFFF;" width="750" height="500"/>
</g>
<g id="OBJECTS">
	<g>
		<defs>
			<rect id="SVGID_1_" width="750" height="500"/>
		</defs>
		<clipPath id="SVGID_00000156578169193444821430000005210681671607088815_">
			<use xlink:href="#SVGID_1_"  style="overflow:visible;"/>
		</clipPath>
		<g style="clip-path:url(#SVGID_00000156578169193444821430000005210681671607088815_);">
			<g>
				<circle style="fill:#FEAF0C;" cx="20.317" cy="115" r="71"/>
				<path style="fill:#FF6B1A;" d="M212,553H91.317V438.341c0-33.326,27.016-60.341,60.341-60.341h0
					C184.984,378,212,405.016,212,438.341V553z"/>
				<path style="fill:none;stroke:#000000;stroke-width:2.5;stroke-linecap:round;stroke-linejoin:round;stroke-miterlimit:10;" d="
					M249,553h-78.683v-69.295c0-21.728,17.614-39.341,39.341-39.341h0c21.728,0,39.341,17.614,39.341,39.341V553z"/>
				<polygon style="fill:#FF6B1A;" points="660,238.5 773.5,125 773.5,-7.5 660,106 				"/>
				<path style="fill:#FF6B1A;" d="M215.327-15l82.637,84.515c15.722,16.079,41.141,17.433,58.481,3.115L462.576-15H215.327z"/>
				<path style="fill:#FEAF0C;" d="M525.466,522.845l-85.792-87.742c-16.322-16.693-42.711-18.098-60.714-3.234l-110.181,90.976
					H525.466z"/>
				<g>
					<g>
						<path style="fill:#FEAF0C;" d="M694.5,519h-37c0-48.799-31.626-88.5-70.5-88.5v-37c29.367,0,56.769,13.499,77.155,38.009
							C683.724,455.034,694.5,486.106,694.5,519z"/>
					</g>
					<circle style="fill:#FF6B1A;" cx="587" cy="519" r="45"/>
				</g>
			</g>
			<g>
				<g>
					<path style="fill:none;stroke:#000000;stroke-width:1.9222;stroke-miterlimit:10;" d="M-7.652,125.5
						c-2.048,0-4.095-0.781-5.657-2.343c-3.125-3.124-3.125-8.189,0-11.313l90.842-90.841c3.125-3.124,8.19-3.124,11.313,0
						c3.125,3.124,3.125,8.189,0,11.313l-90.842,90.841C-3.558,124.719-5.605,125.5-7.652,125.5z"/>
				</g>
				<g>
					<path style="fill:none;stroke:#000000;stroke-width:1.9222;stroke-miterlimit:10;" d="M690.571,303.421
						c-2.048,0-4.095-0.781-5.657-2.343c-3.125-3.124-3.125-8.19,0-11.314l90.842-90.841c3.125-3.124,8.19-3.124,11.313,0
						c3.125,3.124,3.125,8.189,0,11.313l-90.842,90.841C694.666,302.639,692.619,303.421,690.571,303.421z"/>
				</g>
				<g>
					<path style="fill:none;stroke:#3D3D3D;stroke-width:2;stroke-linecap:round;stroke-linejoin:round;stroke-miterlimit:10;" d="
						M455.855,83.776c0-26.1,21.234-47.334,47.334-47.334c26.1,0,47.333,21.234,47.333,47.334c0,15.071,12.262,27.333,27.333,27.333
						c15.072,0,27.333-12.262,27.333-27.333"/>
					<path style="fill:none;stroke:#3D3D3D;stroke-width:2;stroke-linecap:round;stroke-linejoin:round;stroke-miterlimit:10;" d="
						M625.188,83.776c0,26.1-21.234,47.333-47.333,47.333c-26.1,0-47.333-21.233-47.333-47.333
						c0-15.072-12.262-27.334-27.333-27.334c-15.072,0-27.334,12.262-27.334,27.334"/>
					
						<path style="fill:none;stroke:#3D3D3D;stroke-width:3;stroke-linecap:round;stroke-linejoin:round;stroke-miterlimit:10;stroke-dasharray:1,5;" d="
						M465.855,83.776c0-20.619,16.715-37.333,37.333-37.333c20.619,0,37.333,16.715,37.333,37.333
						c0,20.619,16.715,37.333,37.333,37.333c20.619,0,37.333-16.715,37.333-37.333"/>
				</g>
				<g>
					<polygon style="fill:none;stroke:#000000;stroke-width:1.9222;stroke-miterlimit:10;" points="29.817,242.625 29.817,261.625 
						48.817,261.625 					"/>
					<polygon style="fill:none;stroke:#000000;stroke-width:1.9222;stroke-miterlimit:10;" points="29.817,261.625 29.817,280.625 
						48.817,280.625 					"/>
					<polygon style="fill:none;stroke:#000000;stroke-width:1.9222;stroke-miterlimit:10;" points="29.817,280.625 29.817,299.625 
						48.817,299.625 					"/>
					<polygon style="fill:none;stroke:#000000;stroke-width:1.9222;stroke-miterlimit:10;" points="29.817,299.625 29.817,318.625 
						48.817,318.625 					"/>
					<polygon style="fill:none;stroke:#000000;stroke-width:1.9222;stroke-miterlimit:10;" points="29.817,337.625 29.817,356.625 
						48.817,356.625 					"/>
				</g>
				<g>
					<polygon style="fill:none;stroke:#000000;stroke-width:1.9222;stroke-miterlimit:10;" points="654.667,21.065 635.667,21.065 
						635.667,40.065 					"/>
					<polygon style="fill:none;stroke:#000000;stroke-width:1.9222;stroke-miterlimit:10;" points="635.667,21.065 616.667,21.065 
						616.667,40.065 					"/>
					<polygon style="fill:none;stroke:#000000;stroke-width:1.9222;stroke-miterlimit:10;" points="616.667,21.065 597.667,21.065 
						597.667,40.065 					"/>
					<polygon style="fill:none;stroke:#000000;stroke-width:1.9222;stroke-miterlimit:10;" points="597.667,21.065 578.667,21.065 
						578.667,40.065 					"/>
				</g>
				<path style="fill:none;stroke:#000000;stroke-width:2.5;stroke-linecap:round;stroke-linejoin:round;stroke-miterlimit:10;" d="
					M682.568-32.87C677.72-22.945,675-11.79,675,0c0,41.421,33.579,75,75,75c20.459,0,39.005-8.192,52.536-21.475"/>
				<g>
					<g>
						
							<path style="fill:none;stroke:#000000;stroke-width:1.3;stroke-linecap:round;stroke-linejoin:round;stroke-miterlimit:10;" d="
							M128.774,35.033c-6.423,0.76-7.04,1.377-7.8,7.8c-0.76-6.424-1.376-7.04-7.8-7.8c6.424-0.76,7.04-1.376,7.8-7.8
							C121.735,33.657,122.351,34.273,128.774,35.033z"/>
						
							<path style="fill:none;stroke:#000000;stroke-width:1.3;stroke-linecap:round;stroke-linejoin:round;stroke-miterlimit:10;" d="
							M152.32,35.033c-6.423,0.76-7.04,1.377-7.8,7.8c-0.76-6.424-1.376-7.04-7.8-7.8c6.424-0.76,7.04-1.376,7.8-7.8
							C145.28,33.657,145.896,34.273,152.32,35.033z"/>
						
							<path style="fill:none;stroke:#000000;stroke-width:1.3;stroke-linecap:round;stroke-linejoin:round;stroke-miterlimit:10;" d="
							M175.865,35.033c-6.424,0.76-7.04,1.377-7.8,7.8c-0.76-6.424-1.376-7.04-7.8-7.8c6.424-0.76,7.04-1.376,7.8-7.8
							C168.825,33.657,169.441,34.273,175.865,35.033z"/>
						
							<path style="fill:none;stroke:#000000;stroke-width:1.3;stroke-linecap:round;stroke-linejoin:round;stroke-miterlimit:10;" d="
							M199.41,35.033c-6.423,0.76-7.04,1.377-7.8,7.8c-0.76-6.424-1.377-7.04-7.8-7.8c6.423-0.76,7.04-1.376,7.8-7.8
							C192.37,33.657,192.986,34.273,199.41,35.033z"/>
						
							<path style="fill:none;stroke:#000000;stroke-width:1.3;stroke-linecap:round;stroke-linejoin:round;stroke-miterlimit:10;" d="
							M222.955,35.033c-6.424,0.76-7.04,1.377-7.8,7.8c-0.76-6.424-1.376-7.04-7.8-7.8c6.424-0.76,7.04-1.376,7.8-7.8
							C215.915,33.657,216.531,34.273,222.955,35.033z"/>
						
							<path style="fill:none;stroke:#000000;stroke-width:1.3;stroke-linecap:round;stroke-linejoin:round;stroke-miterlimit:10;" d="
							M246.5,35.033c-6.424,0.76-7.04,1.377-7.8,7.8c-0.76-6.424-1.376-7.04-7.8-7.8c6.424-0.76,7.04-1.376,7.8-7.8
							C239.46,33.657,240.076,34.273,246.5,35.033z"/>
					</g>
					<g>
						
							<path style="fill:none;stroke:#000000;stroke-width:1.3;stroke-linecap:round;stroke-linejoin:round;stroke-miterlimit:10;" d="
							M128.774,58.156c-6.423,0.76-7.04,1.376-7.8,7.8c-0.76-6.424-1.376-7.04-7.8-7.8c6.424-0.76,7.04-1.376,7.8-7.8
							C121.735,56.78,122.351,57.396,128.774,58.156z"/>
						
							<path style="fill:none;stroke:#000000;stroke-width:1.3;stroke-linecap:round;stroke-linejoin:round;stroke-miterlimit:10;" d="
							M152.32,58.156c-6.423,0.76-7.04,1.376-7.8,7.8c-0.76-6.424-1.376-7.04-7.8-7.8c6.424-0.76,7.04-1.376,7.8-7.8
							C145.28,56.78,145.896,57.396,152.32,58.156z"/>
						
							<path style="fill:none;stroke:#000000;stroke-width:1.3;stroke-linecap:round;stroke-linejoin:round;stroke-miterlimit:10;" d="
							M175.865,58.156c-6.424,0.76-7.04,1.376-7.8,7.8c-0.76-6.424-1.376-7.04-7.8-7.8c6.424-0.76,7.04-1.376,7.8-7.8
							C168.825,56.78,169.441,57.396,175.865,58.156z"/>
						
							<path style="fill:none;stroke:#000000;stroke-width:1.3;stroke-linecap:round;stroke-linejoin:round;stroke-miterlimit:10;" d="
							M199.41,58.156c-6.423,0.76-7.04,1.376-7.8,7.8c-0.76-6.424-1.377-7.04-7.8-7.8c6.423-0.76,7.04-1.376,7.8-7.8
							C192.37,56.78,192.986,57.396,199.41,58.156z"/>
						
							<path style="fill:none;stroke:#000000;stroke-width:1.3;stroke-linecap:round;stroke-linejoin:round;stroke-miterlimit:10;" d="
							M222.955,58.156c-6.424,0.76-7.04,1.376-7.8,7.8c-0.76-6.424-1.376-7.04-7.8-7.8c6.424-0.76,7.04-1.376,7.8-7.8
							C215.915,56.78,216.531,57.396,222.955,58.156z"/>
						
							<path style="fill:none;stroke:#000000;stroke-width:1.3;stroke-linecap:round;stroke-linejoin:round;stroke-miterlimit:10;" d="
							M246.5,58.156c-6.424,0.76-7.04,1.376-7.8,7.8c-0.76-6.424-1.376-7.04-7.8-7.8c6.424-0.76,7.04-1.376,7.8-7.8
							C239.46,56.78,240.076,57.396,246.5,58.156z"/>
					</g>
				</g>
				<g>
					
						<path style="fill:none;stroke:#000000;stroke-width:1.3;stroke-linecap:round;stroke-linejoin:round;stroke-miterlimit:10;" d="
						M716.75,350.953c-0.76-6.424-1.377-7.04-7.8-7.8c6.423-0.76,7.04-1.376,7.8-7.8c0.76,6.423,1.376,7.04,7.8,7.8
						C718.126,343.913,717.51,344.529,716.75,350.953z"/>
					
						<path style="fill:none;stroke:#000000;stroke-width:1.3;stroke-linecap:round;stroke-linejoin:round;stroke-miterlimit:10;" d="
						M716.75,398.043c-0.76-6.424-1.377-7.04-7.8-7.8c6.423-0.76,7.04-1.376,7.8-7.8c0.76,6.424,1.376,7.04,7.8,7.8
						C718.126,391.003,717.51,391.619,716.75,398.043z"/>
					
						<path style="fill:none;stroke:#000000;stroke-width:1.3;stroke-linecap:round;stroke-linejoin:round;stroke-miterlimit:10;" d="
						M716.75,421.588c-0.76-6.424-1.377-7.04-7.8-7.8c6.423-0.76,7.04-1.376,7.8-7.8c0.76,6.424,1.376,7.04,7.8,7.8
						C718.126,414.548,717.51,415.164,716.75,421.588z"/>
					
						<path style="fill:none;stroke:#000000;stroke-width:1.3;stroke-linecap:round;stroke-linejoin:round;stroke-miterlimit:10;" d="
						M716.75,445.133c-0.76-6.423-1.377-7.04-7.8-7.8c6.423-0.76,7.04-1.376,7.8-7.8c0.76,6.424,1.376,7.04,7.8,7.8
						C718.126,438.093,717.51,438.71,716.75,445.133z"/>
					
						<path style="fill:none;stroke:#000000;stroke-width:1.3;stroke-linecap:round;stroke-linejoin:round;stroke-miterlimit:10;" d="
						M716.75,468.678c-0.76-6.423-1.377-7.04-7.8-7.8c6.423-0.76,7.04-1.376,7.8-7.8c0.76,6.424,1.376,7.04,7.8,7.8
						C718.126,461.638,717.51,462.255,716.75,468.678z"/>
				</g>
				<path style="fill:none;stroke:#000000;stroke-width:2.5;stroke-linecap:round;stroke-linejoin:round;stroke-miterlimit:10;" d="
					M37.769,450.5c0-25.865,20.968-46.833,46.833-46.833c25.865,0,46.833,20.968,46.833,46.833H37.769z"/>
				<g>
					<g>
						<path style="fill:none;stroke:#000000;stroke-width:1.9222;stroke-miterlimit:10;" d="M597.254,407.784
							c-2.264,0-4.099,1.835-4.099,4.099c0,2.264,1.835,4.099,4.099,4.099c2.264,0,4.099-1.835,4.099-4.099
							C601.353,409.619,599.518,407.784,597.254,407.784z"/>
						<circle style="fill:none;stroke:#000000;stroke-width:1.9222;stroke-miterlimit:10;" cx="578.137" cy="411.883" r="4.099"/>
						<circle style="fill:none;stroke:#000000;stroke-width:1.9222;stroke-miterlimit:10;" cx="559.021" cy="411.883" r="4.099"/>
					</g>
					<g>
						<path style="fill:none;stroke:#000000;stroke-width:1.9222;stroke-miterlimit:10;" d="M586.908,438.185
							c-2.264,0-4.099,1.835-4.099,4.099c0,2.264,1.835,4.099,4.099,4.099c2.264,0,4.099-1.835,4.099-4.099
							C591.008,440.02,589.172,438.185,586.908,438.185z"/>
						<circle style="fill:none;stroke:#000000;stroke-width:1.9222;stroke-miterlimit:10;" cx="567.792" cy="442.284" r="4.099"/>
						<circle style="fill:none;stroke:#000000;stroke-width:1.9222;stroke-miterlimit:10;" cx="548.675" cy="442.284" r="4.099"/>
					</g>
				</g>
				<g>
					<path style="fill:none;stroke:#000000;stroke-width:1.9222;stroke-miterlimit:10;" d="M361.289,142.333
						c-2.264,0-4.099,1.835-4.099,4.099s1.835,4.099,4.099,4.099c2.264,0,4.099-1.835,4.099-4.099S363.553,142.333,361.289,142.333z
						"/>
					<circle style="fill:none;stroke:#000000;stroke-width:1.9222;stroke-miterlimit:10;" cx="323.056" cy="146.432" r="4.099"/>
				</g>
				<g>
					<g>
						<circle style="fill:none;stroke:#000000;stroke-width:1.9222;stroke-miterlimit:10;" cx="121.575" cy="194.679" r="4.099"/>
						<circle style="fill:none;stroke:#000000;stroke-width:1.9222;stroke-miterlimit:10;" cx="140.659" cy="194.679" r="4.099"/>
						<circle style="fill:none;stroke:#000000;stroke-width:1.9222;stroke-miterlimit:10;" cx="102.492" cy="194.679" r="4.099"/>
					</g>
					<g>
						<circle style="fill:none;stroke:#000000;stroke-width:1.9222;stroke-miterlimit:10;" cx="121.575" cy="218" r="4.099"/>
						<circle style="fill:none;stroke:#000000;stroke-width:1.9222;stroke-miterlimit:10;" cx="140.659" cy="218" r="4.099"/>
						<circle style="fill:none;stroke:#000000;stroke-width:1.9222;stroke-miterlimit:10;" cx="102.492" cy="218" r="4.099"/>
					</g>
					<g>
						<circle style="fill:none;stroke:#FF6B1A;stroke-width:1.9222;stroke-miterlimit:10;" cx="121.575" cy="241.321" r="4.099"/>
						<circle style="fill:none;stroke:#000000;stroke-width:1.9222;stroke-miterlimit:10;" cx="140.659" cy="241.321" r="4.099"/>
						<circle style="fill:none;stroke:#000000;stroke-width:1.9222;stroke-miterlimit:10;" cx="102.492" cy="241.321" r="4.099"/>
					</g>
					<g>
						<circle style="fill:none;stroke:#FF6B1A;stroke-width:1.9222;stroke-miterlimit:10;" cx="121.575" cy="264.643" r="4.099"/>
						<circle style="fill:none;stroke:#000000;stroke-width:1.9222;stroke-miterlimit:10;" cx="140.659" cy="264.643" r="4.099"/>
						<circle style="fill:none;stroke:#000000;stroke-width:1.9222;stroke-miterlimit:10;" cx="102.492" cy="264.643" r="4.099"/>
					</g>
				</g>
				
					<rect x="634" y="142.333" style="fill:none;stroke:#000000;stroke-width:2.5;stroke-linecap:round;stroke-linejoin:round;stroke-miterlimit:10;" width="74.95" height="13.333"/>
				
					<rect x="634" y="171.667" style="fill:none;stroke:#000000;stroke-width:2.5;stroke-linecap:round;stroke-linejoin:round;stroke-miterlimit:10;" width="74.95" height="13.333"/>
				<g>
					<g>
						
							<rect x="285.5" y="430.383" style="fill:none;stroke:#000000;stroke-width:1.9222;stroke-miterlimit:10;" width="13.5" height="13.5"/>
						
							<rect x="312.5" y="430.383" style="fill:none;stroke:#000000;stroke-width:1.9222;stroke-miterlimit:10;" width="13.5" height="13.5"/>
						
							<rect x="339.5" y="430.383" style="fill:none;stroke:#000000;stroke-width:1.9222;stroke-miterlimit:10;" width="13.5" height="13.5"/>
					</g>
					<g>
						
							<rect x="299" y="443.883" style="fill:none;stroke:#000000;stroke-width:1.9222;stroke-miterlimit:10;" width="13.5" height="13.5"/>
						
							<rect x="326" y="443.883" style="fill:none;stroke:#000000;stroke-width:1.9222;stroke-miterlimit:10;" width="13.5" height="13.5"/>
						
							<rect x="353" y="443.883" style="fill:none;stroke:#000000;stroke-width:1.9222;stroke-miterlimit:10;" width="13.5" height="13.5"/>
					</g>
				</g>
				<path style="fill:#FEAF0C;" d="M119.409,305.313c0,20.573,16.677,37.25,37.25,37.25s37.25-16.677,37.25-37.25H119.409z"/>
				
					<circle style="fill:none;stroke:#000000;stroke-width:2.5;stroke-linecap:round;stroke-linejoin:round;stroke-miterlimit:10;" cx="156.659" cy="305.313" r="10.625"/>
				<g>
					<g>
						<polygon points="131.35,109.467 130.35,99.717 132.35,99.717 						"/>
					</g>
					<g>
						<polygon points="129.165,110.443 121.564,104.256 122.978,102.841 						"/>
					</g>
					<g>
						<polygon points="128.31,112.677 118.56,113.677 118.56,111.677 						"/>
					</g>
					<g>
						<polygon points="129.286,114.862 123.099,122.464 121.684,121.049 						"/>
					</g>
					<g>
						<polygon points="131.521,115.717 132.521,125.467 130.521,125.467 						"/>
					</g>
					<g>
						<polygon points="133.705,114.742 141.307,120.929 139.893,122.343 						"/>
					</g>
					<g>
						<polygon points="134.56,112.507 144.31,111.507 144.31,113.507 						"/>
					</g>
					<g>
						<polygon points="133.585,110.322 139.772,102.721 141.186,104.135 						"/>
					</g>
				</g>
				<g>
					<g>
						<polygon points="593.069,332.228 592.069,322.478 594.069,322.478 						"/>
					</g>
					<g>
						<polygon points="590.885,333.203 583.283,327.016 584.697,325.602 						"/>
					</g>
					<g>
						<polygon points="590.03,335.438 580.28,336.438 580.28,334.438 						"/>
					</g>
					<g>
						<polygon points="591.005,337.623 584.818,345.224 583.404,343.81 						"/>
					</g>
					<g>
						<polygon points="593.24,338.478 594.24,348.228 592.24,348.228 						"/>
					</g>
					<g>
						<polygon points="595.425,337.502 603.026,343.689 601.612,345.103 						"/>
					</g>
					<g>
						<polygon points="596.28,335.267 606.03,334.267 606.03,336.267 						"/>
					</g>
					<g>
						<polygon points="595.304,333.083 601.491,325.481 602.905,326.896 						"/>
					</g>
				</g>
				<rect x="243" y="394" width="40" height="5"/>
				<rect x="473" y="13.659" width="40" height="5"/>
				<rect x="601.155" y="244.821" transform="matrix(-1.836970e-16 1 -1 -1.836970e-16 868.476 -373.8334)" width="40" height="5"/>
				<rect x="315.5" y="394" width="10.5" height="5"/>
				<rect x="210.077" y="110.317" width="10.5" height="5"/>
				<g>
					
						<rect x="191.577" y="146" transform="matrix(0.7071 0.7071 -0.7071 0.7071 166.3493 -95.6026)" style="fill:none;stroke:#000000;stroke-width:2.5;stroke-linecap:round;stroke-linejoin:round;stroke-miterlimit:10;" width="14" height="14"/>
					
						<rect x="220.968" y="146" transform="matrix(0.7071 0.7071 -0.7071 0.7071 174.9576 -116.385)" style="fill:none;stroke:#000000;stroke-width:2.5;stroke-linecap:round;stroke-linejoin:round;stroke-miterlimit:10;" width="14" height="14"/>
					
						<rect x="191.577" y="179.152" transform="matrix(0.7071 0.7071 -0.7071 0.7071 189.7913 -85.8926)" style="fill:none;stroke:#000000;stroke-width:2.5;stroke-linecap:round;stroke-linejoin:round;stroke-miterlimit:10;" width="14" height="14"/>
				</g>
				<g>
					
						<rect x="632.465" y="309.896" transform="matrix(0.7071 0.7071 -0.7071 0.7071 411.3742 -359.353)" style="fill:none;stroke:#000000;stroke-width:2.5;stroke-linecap:round;stroke-linejoin:round;stroke-miterlimit:10;" width="14" height="14"/>
					
						<rect x="632.465" y="343.048" transform="matrix(0.7071 0.7071 -0.7071 0.7071 434.8162 -349.643)" style="fill:none;stroke:#000000;stroke-width:2.5;stroke-linecap:round;stroke-linejoin:round;stroke-miterlimit:10;" width="14" height="14"/>
				</g>
				<g>
					
						<polygon style="fill:none;stroke:#000000;stroke-width:2.5;stroke-linecap:round;stroke-linejoin:round;stroke-miterlimit:10;" points="
						427.241,364.631 394.718,403.39 445.157,399.392 477.68,360.633 					"/>
					
						<polygon style="fill:none;stroke:#000000;stroke-width:2.5;stroke-linecap:round;stroke-linejoin:round;stroke-miterlimit:10;" points="
						453.806,416.175 421.283,454.935 471.722,450.937 504.245,412.177 					"/>
					
						<line style="fill:none;stroke:#000000;stroke-width:2.5;stroke-linecap:round;stroke-linejoin:round;stroke-miterlimit:10;" x1="445.157" y1="399.392" x2="471.722" y2="450.937"/>
					
						<line style="fill:none;stroke:#000000;stroke-width:2.5;stroke-linecap:round;stroke-linejoin:round;stroke-miterlimit:10;" x1="477.68" y1="360.633" x2="504.245" y2="412.177"/>
					
						<line style="fill:none;stroke:#000000;stroke-width:2.5;stroke-linecap:round;stroke-linejoin:round;stroke-miterlimit:10;" x1="394.718" y1="403.39" x2="421.283" y2="454.935"/>
				</g>
				<g>
					<path style="fill:none;stroke:#000000;stroke-width:1.5428;stroke-miterlimit:10;" d="M592.409,191.883h-83.776
						c-5.861,0-10.612-4.751-10.612-10.612v0c0-5.861,4.751-10.612,10.612-10.612h83.776c5.861,0,10.612,4.751,10.612,10.612v0
						C603.021,187.132,598.27,191.883,592.409,191.883z"/>
					<g>
						<path style="fill:none;stroke:#FEAF0C;stroke-width:2;stroke-miterlimit:10;" d="M524.555,181.271
							c0,2.714-2.2,4.914-4.913,4.914c-2.714,0-4.914-2.2-4.914-4.914c0-2.714,2.2-4.913,4.914-4.913
							C522.355,176.358,524.555,178.558,524.555,181.271z"/>
						<path style="fill:none;stroke:#FEAF0C;stroke-width:2;stroke-miterlimit:10;" d="M555.435,181.271
							c0,2.714-2.2,4.914-4.914,4.914s-4.914-2.2-4.914-4.914c0-2.714,2.2-4.913,4.914-4.913S555.435,178.558,555.435,181.271z"/>
						<path style="fill:none;stroke:#FEAF0C;stroke-width:2;stroke-miterlimit:10;" d="M586.315,181.271
							c0,2.714-2.2,4.914-4.914,4.914c-2.714,0-4.913-2.2-4.913-4.914c0-2.714,2.2-4.913,4.913-4.913
							C584.116,176.358,586.315,178.558,586.315,181.271z"/>
					</g>
				</g>
				<g>
					
						<ellipse transform="matrix(0.9356 -0.3531 0.3531 0.9356 1.3535 131.0101)" style="fill:none;stroke:#000000;stroke-width:1.4692;stroke-linecap:round;stroke-linejoin:round;stroke-miterlimit:10;" cx="359.75" cy="61.795" rx="45.2" ry="45.2"/>
					
						<ellipse transform="matrix(0.9363 -0.3513 0.3513 0.9363 1.218 130.3049)" style="fill:none;stroke:#000000;stroke-width:1.4692;stroke-linecap:round;stroke-linejoin:round;stroke-miterlimit:10;" cx="359.75" cy="61.795" rx="36.24" ry="36.24"/>
					
						<ellipse transform="matrix(0.937 -0.3494 0.3494 0.937 1.0851 129.6056)" style="fill:none;stroke:#000000;stroke-width:1.4692;stroke-linecap:round;stroke-linejoin:round;stroke-miterlimit:10;" cx="359.75" cy="61.795" rx="27.279" ry="27.279"/>
					
						<ellipse transform="matrix(0.9376 -0.3476 0.3476 0.9376 0.9547 128.9124)" style="fill:none;stroke:#000000;stroke-width:1.4692;stroke-linecap:round;stroke-linejoin:round;stroke-miterlimit:10;" cx="359.75" cy="61.795" rx="18.319" ry="18.319"/>
				</g>
				<g>
					<polygon style="fill:none;stroke:#000000;stroke-width:1.9222;stroke-miterlimit:10;" points="251.88,346.076 251.88,335.823 
						243,330.696 234.12,335.823 234.12,346.076 243,351.203 					"/>
					<polygon style="fill:none;stroke:#000000;stroke-width:1.9222;stroke-miterlimit:10;" points="274.76,346.076 274.76,335.823 
						265.88,330.696 257,335.823 257,346.076 265.88,351.203 					"/>
					<polygon style="fill:none;stroke:#000000;stroke-width:1.9222;stroke-miterlimit:10;" points="297.639,346.076 
						297.639,335.823 288.76,330.696 279.88,335.823 279.88,346.076 288.76,351.203 					"/>
					<polygon style="fill:none;stroke:#000000;stroke-width:1.9222;stroke-miterlimit:10;" points="320.519,346.076 
						320.519,335.823 311.639,330.696 302.76,335.823 302.76,346.076 311.639,351.203 					"/>
					<polygon style="fill:none;stroke:#000000;stroke-width:1.9222;stroke-miterlimit:10;" points="343.399,346.076 
						343.399,335.823 334.519,330.696 325.639,335.823 325.639,346.076 334.519,351.203 					"/>
					<polygon style="fill:none;stroke:#000000;stroke-width:1.9222;stroke-miterlimit:10;" points="366.279,346.076 
						366.279,335.823 357.399,330.696 348.519,335.823 348.519,346.076 357.399,351.203 					"/>
				</g>
			</g>
		</g>
	</g>
</g>
</svg>
